<svg version="1.2" xmlns="http://www.w3.org/2000/svg" viewBox="0 -1 533 504" width="533" height="504">
	<title>zeni_logo</title>
	<style>
		.s0 { fill: #f5965c;stroke: #f5965c;stroke-miterlimit:10 } 
		.s1 { fill: #ef7850;stroke: #ef7850;stroke-miterlimit:10 } 
		.s2 { fill: #ec5739;stroke: #ec5739;stroke-miterlimit:10 } 
		.s3 { fill: #f7b868;stroke: #f7b868;stroke-miterlimit:10 } 
		.s4 { fill: #770088;stroke: #770088;stroke-miterlimit:10 } 
		.s5 { fill: #004cff;stroke: #004cff;stroke-miterlimit:10 } 
		.s6 { fill: #028121;stroke: #028121;stroke-miterlimit:10 } 
		.s7 { fill: #ffee00;stroke: #ffee00;stroke-miterlimit:10 } 
		.s8 { fill: #ff8d00;stroke: #ff8d00;stroke-miterlimit:10 } 
		.s9 { fill: #e50000;stroke: #e50000;stroke-miterlimit:10 } 
		.s10 { fill: none;stroke: #262d32;stroke-linecap: round;stroke-linejoin: round;stroke-width: 13.2 } 
		.s11 { fill: none;stroke: #262d32;stroke-linecap: round;stroke-linejoin: round;stroke-width: 13.8 } 
	</style>
	<g id="bola">
		<path id="Shape1" fill-rule="evenodd" class="s0" d="m57.6 251.2c0-22.5 3.6-44.2 10.2-64.6 109.2-23.7 258.2-30.9 392.6-11 9.1 23.4 14.1 48.9 14.1 75.6 0 38.4-10.3 74.3-28.4 105.2-47.5-23.5-226-96.1-385.3-68.5-2.1-11.9-3.2-24.2-3.2-36.7z"/>
		<path id="Limit" fill-rule="evenodd" class="s1" d="m397.3 413.2c-39.1-9.1-148.5-29.7-279.1-15-29.3-29.4-49.9-67.6-57.4-110.3 159.3-27.6 337.8 45 385.3 68.5-12.7 21.8-29.3 41-48.8 56.8z"/>
		<path id="Circulo copy" fill-rule="evenodd" class="s2" d="m266 459.7c-57.8 0-110.1-23.5-147.8-61.5 130.6-14.7 240 5.9 279.1 15-35.8 29.1-81.5 46.5-131.3 46.5z"/>
		<path id="Circulo" fill-rule="evenodd" class="s3" d="m266 42.8c88.6 0 164.1 55 194.4 132.8-134.4-19.9-283.4-12.7-392.6 11 27.1-83.5 105.5-143.8 198.2-143.8z"/>
	</g>
	<g id="bola pride">
		<path id="Shape 6 copy 5" fill-rule="evenodd" class="s4" d="m376.3 331.3l-12-20.3h31.9zm-111.7 20.7l-12.6 13-30-44.8-24 5.7 2.3-14.9h53.1zm-92.7 0.1l-86.2 86.4zm121.6-216.9l-9.1 10zm-40.6-6.5l-9 10zm130 87.4l-6.9 7.6zm11.4 36.6l-6.3 6.9zm-141.4-124l-9 10zm130 87.4l-6.9 7.6zm11.4 36.6l-6.3 6.9zm-100.8-117.6l-9 10z"/>
		<path id="Shape 6 copy 4" fill-rule="evenodd" class="s5" d="m398.9 308.2l-5.7 5.8h-27.1l-26.7-45h47zm-148.1-7.1l3.5 12.9h-54.4l1.9-12.5-45.6-23.1 7.2-9.4h42l13 1.4 1.2-1.4h63zm-78.9 51.1l-86.2 86.5zm121.6-217l-9.1 10zm-40.6-6.4l-9.1 10zm130.1 87.4l-6.9 7.6zm11.4 36.6l-6.3 6.9zm-141.4-124.1l-9 10zm130 87.5l-6.9 7.5zm11.4 36.6l-6.3 7zm-100.8-117.6l-9 9.9z"/>
		<path id="Shape 6 copy 3" fill-rule="evenodd" class="s6" d="m318.2 233.2l-39.6 39.8h-118.3l6.2-8 51.9 5.4 38.9-42.4h116.1l14.3 45h-45.9zm-146.3 119l-86.2 86.4zm121.6-216.9l-9.1 10zm-40.6-6.5l-9.1 10zm130.1 87.4l-6.9 7.6zm11.4 36.6l-6.3 6.9zm-141.4-124l-9 10zm130 87.4l-6.9 7.6zm11.4 36.6l-6.3 6.9zm-100.8-117.6l-9 10z"/>
		<path id="Shape 6 copy 2" fill-rule="evenodd" class="s7" d="m318.2 233.2l-0.9 0.8h-65.5l30.4-33.1-29.1-11.9h107.8l14.4 45h-56.6zm-146.3 119l-86.2 86.4zm121.6-216.9l-9.1 10zm-40.6-6.5l-9.1 10zm130.1 87.4l-6.9 7.6zm11.4 36.6l-6.3 6.9zm-141.4-124l-9.1 10zm130.1 87.4l-6.9 7.6zm11.4 36.6l-6.3 6.9zm-100.8-117.6l-9 10z"/>
		<path id="Shape 6 copy" fill-rule="evenodd" class="s8" d="m323.1 151c0 0 2.4-2.4 5.9-6h68.2q-1.1 3.7-3.2 7.5c-0.6 0.5-33.3 35.9-33.3 35.9l0.6 1.6h-105.8l-81.9-33.5 10.5-11.5h94.9zm-151.2 201.1l-86.2 86.5zm121.6-217l-9 10zm-40.7-6.5l-9 10zm130 87.5l-6.8 7.5zm11.4 36.6l-6.3 6.9zm-141.4-124l-9.1 10zm130 87.4l-6.8 7.6zm11.4 36.6l-6.3 6.9zm-100.8-117.6l-9.1 10z"/>
		<path id="Shape 6" fill-rule="evenodd" class="s9" d="m352.8 120.5c25.1-20.4 53.9-2.3 44.1 25.5h-68.9c8.5-8.6 24.8-25.3 24.8-25.5zm-158.2 12.9l91.7 12.6h-103.1zm-22.7 218.8l-86.2 86.4zm121.6-217l-9.1 10zm-40.6-6.4l-9.1 10zm130.1 87.4l-6.9 7.6zm11.4 36.6l-6.3 6.9zm-141.4-124l-9.1 9.9zm130.1 87.5l-6.9 7.5zm11.4 36.6l-6.3 7zm-100.8-117.6l-9 9.9z"/>
	</g>
	<g id="Avion+raya">
		<path id="raya" fill-rule="evenodd" class="s10" d="m171.9 352.2l-86.2 86.4z"/>
		<g id="Avion">
			<path id="Shape 5 copy 4" fill-rule="evenodd" class="s11" d="m194.6 133.4l-21 23.1 108.6 44.4-63.8 69.5-51.9-5.4-10.3 13.3 45.5 23.2-3.6 24.4 24-5.6 30 44.7 12.5-13-13.8-51 67.4-67.8 58.1 98.1 22.6-23.1-38.2-119.8c0 0 32.7-35.4 33.3-35.9 17.1-31.3-14.2-54-41.2-32 0 0.3-29.7 30.5-29.7 30.5zm58.3-4.6l-9.1 10zm130 87.4l-6.8 7.6zm11.4 36.6l-6.3 6.9zm-100.8-117.6l-9.1 10z"/>
		</g>
	</g>
</svg>