<svg version="1.2" xmlns="http://www.w3.org/2000/svg" viewBox="0 -1 533 504" width="533" height="504">
	<title>zeni_logo</title>
	<style>
		.s0 { fill: #f5965c;stroke: #f5965c;stroke-miterlimit:10 } 
		.s1 { fill: #ef7850;stroke: #ef7850;stroke-miterlimit:10 } 
		.s2 { fill: #ec5739;stroke: #ec5739;stroke-miterlimit:10 } 
		.s3 { fill: #f7b868;stroke: #f7b868;stroke-miterlimit:10 } 
		.s4 { fill: none;stroke: #262d32;stroke-linecap: round;stroke-linejoin: round;stroke-width: 13.2 } 
		.s5 { fill: none;stroke: #262d32;stroke-linecap: round;stroke-linejoin: round;stroke-width: 13.8 } 
	</style>
	<g id="bola">
		<path id="Shape1" fill-rule="evenodd" class="s0" d="m57.6 251.2c0-22.5 3.6-44.2 10.2-64.6 109.2-23.7 258.2-30.9 392.6-11 9.1 23.4 14.1 48.9 14.1 75.6 0 38.4-10.3 74.3-28.4 105.2-47.5-23.5-226-96.1-385.3-68.5-2.1-11.9-3.2-24.2-3.2-36.7z"/>
		<path id="Limit" fill-rule="evenodd" class="s1" d="m397.3 413.2c-39.1-9.1-148.5-29.7-279.1-15-29.3-29.4-49.9-67.6-57.4-110.3 159.3-27.6 337.8 45 385.3 68.5-12.7 21.8-29.3 41-48.8 56.8z"/>
		<path id="Circulo copy" fill-rule="evenodd" class="s2" d="m266 459.7c-57.8 0-110.1-23.5-147.8-61.5 130.6-14.7 240 5.9 279.1 15-35.8 29.1-81.5 46.5-131.3 46.5z"/>
		<path id="Circulo" fill-rule="evenodd" class="s3" d="m266 42.8c88.6 0 164.1 55 194.4 132.8-134.4-19.9-283.4-12.7-392.6 11 27.1-83.5 105.5-143.8 198.2-143.8z"/>
	</g>
	<g id="Avion+raya">
		<path id="raya" fill-rule="evenodd" class="s4" d="m171.9 352.2l-86.2 86.4z"/>
		<g id="Avion">
			<path id="Shape 5 copy 4" fill-rule="evenodd" class="s5" d="m194.6 133.4l-21 23.1 108.6 44.4-63.8 69.5-51.9-5.4-10.3 13.3 45.5 23.2-3.6 24.4 24-5.6 30 44.7 12.5-13-13.8-51 67.4-67.8 58.1 98.1 22.6-23.1-38.2-119.8c0 0 32.7-35.4 33.3-35.9 17.1-31.3-14.2-54-41.2-32 0 0.3-29.7 30.5-29.7 30.5zm58.3-4.6l-9.1 10zm130 87.4l-6.8 7.6zm11.4 36.6l-6.3 6.9zm-100.8-117.6l-9.1 10z"/>
		</g>
	</g>
</svg>